<mxfile host="app.diagrams.net" modified="2020-10-01T18:56:03.231Z" agent="5.0 (Windows NT 10.0; Win64; x64) AppleWebKit/537.36 (KHTML, like Gecko) Chrome/85.0.4183.121 Safari/537.36" etag="5aKncnAIgA6hbC8_hV7v" version="13.7.7" type="github">
  <diagram id="C5RBs43oDa-KdzZeNtuy" name="Page-1">
    <mxGraphModel dx="782" dy="469" grid="1" gridSize="10" guides="1" tooltips="1" connect="1" arrows="1" fold="1" page="1" pageScale="1" pageWidth="827" pageHeight="1169" math="0" shadow="0">
      <root>
        <mxCell id="WIyWlLk6GJQsqaUBKTNV-0" />
        <mxCell id="WIyWlLk6GJQsqaUBKTNV-1" parent="WIyWlLk6GJQsqaUBKTNV-0" />
        <mxCell id="WIyWlLk6GJQsqaUBKTNV-2" value="" style="endArrow=classic;html=1;shadow=0;fontFamily=Helvetica;fontSize=11;fontColor=#5C5C5C;align=center;endFill=0;strokeColor=#6c8ebf;strokeWidth=1;edgeStyle=orthogonalEdgeStyle;fillColor=#dae8fc;" parent="WIyWlLk6GJQsqaUBKTNV-1" source="WIyWlLk6GJQsqaUBKTNV-6" target="WIyWlLk6GJQsqaUBKTNV-3" edge="1">
          <mxGeometry relative="1" as="geometry" />
        </mxCell>
        <mxCell id="WIyWlLk6GJQsqaUBKTNV-3" value="Divide" style="ellipse;whiteSpace=wrap;html=1;aspect=fixed;shadow=0;fontFamily=Helvetica;fontSize=12;align=center;strokeColor=#6c8ebf;strokeWidth=1;fillColor=#dae8fc;" parent="WIyWlLk6GJQsqaUBKTNV-1" vertex="1">
          <mxGeometry x="317" y="210" width="120" height="40" as="geometry" />
        </mxCell>
        <mxCell id="WIyWlLk6GJQsqaUBKTNV-6" value="Begin" style="ellipse;whiteSpace=wrap;html=1;aspect=fixed;shadow=0;fontFamily=Helvetica;fontSize=12;align=center;strokeColor=#6c8ebf;strokeWidth=1;fillColor=#dae8fc;" parent="WIyWlLk6GJQsqaUBKTNV-1" vertex="1">
          <mxGeometry x="327" y="300" width="100" height="80" as="geometry" />
        </mxCell>
        <mxCell id="oZQmqG68w5PHLfML1UTu-38" value="" style="edgeStyle=orthogonalEdgeStyle;rounded=0;orthogonalLoop=1;jettySize=auto;html=1;" edge="1" parent="WIyWlLk6GJQsqaUBKTNV-1" source="WIyWlLk6GJQsqaUBKTNV-7" target="WIyWlLk6GJQsqaUBKTNV-6">
          <mxGeometry relative="1" as="geometry" />
        </mxCell>
        <mxCell id="WIyWlLk6GJQsqaUBKTNV-7" value="Plus" style="ellipse;whiteSpace=wrap;html=1;aspect=fixed;shadow=0;fontFamily=Helvetica;fontSize=12;align=center;strokeColor=#6c8ebf;strokeWidth=1;fillColor=#dae8fc;" parent="WIyWlLk6GJQsqaUBKTNV-1" vertex="1">
          <mxGeometry x="477" y="320" width="120" height="40" as="geometry" />
        </mxCell>
        <mxCell id="WIyWlLk6GJQsqaUBKTNV-12" value="Multiply" style="ellipse;whiteSpace=wrap;html=1;aspect=fixed;shadow=0;fontFamily=Helvetica;fontSize=12;align=center;strokeColor=#6c8ebf;strokeWidth=1;fillColor=#dae8fc;" parent="WIyWlLk6GJQsqaUBKTNV-1" vertex="1">
          <mxGeometry x="157" y="320" width="120" height="40" as="geometry" />
        </mxCell>
        <mxCell id="iUPQUDSOphjakr8NZaIA-1" value="+" style="text;html=1;align=center;verticalAlign=middle;resizable=0;points=[];autosize=1;fillColor=#dae8fc;strokeColor=#6c8ebf;" parent="WIyWlLk6GJQsqaUBKTNV-1" vertex="1">
          <mxGeometry x="437" y="310" width="20" height="20" as="geometry" />
        </mxCell>
        <mxCell id="iUPQUDSOphjakr8NZaIA-3" value="/" style="text;html=1;align=center;verticalAlign=middle;resizable=0;points=[];autosize=1;fillColor=#dae8fc;strokeColor=#6c8ebf;" parent="WIyWlLk6GJQsqaUBKTNV-1" vertex="1">
          <mxGeometry x="387" y="270" width="20" height="20" as="geometry" />
        </mxCell>
        <mxCell id="WIyWlLk6GJQsqaUBKTNV-11" value="Minus" style="ellipse;whiteSpace=wrap;html=1;aspect=fixed;shadow=0;fontFamily=Helvetica;fontSize=12;align=center;strokeColor=#6c8ebf;strokeWidth=1;fillColor=#dae8fc;" parent="WIyWlLk6GJQsqaUBKTNV-1" vertex="1">
          <mxGeometry x="372" y="520.86" width="120" height="40" as="geometry" />
        </mxCell>
        <mxCell id="iUPQUDSOphjakr8NZaIA-7" value="L bracket" style="ellipse;whiteSpace=wrap;html=1;aspect=fixed;shadow=0;fontFamily=Helvetica;fontSize=12;align=center;strokeColor=#6c8ebf;strokeWidth=1;fillColor=#dae8fc;" parent="WIyWlLk6GJQsqaUBKTNV-1" vertex="1">
          <mxGeometry x="517" y="420" width="120" height="40" as="geometry" />
        </mxCell>
        <mxCell id="iUPQUDSOphjakr8NZaIA-13" value="(" style="text;html=1;align=center;verticalAlign=middle;resizable=0;points=[];autosize=1;fillColor=#dae8fc;strokeColor=#6c8ebf;" parent="WIyWlLk6GJQsqaUBKTNV-1" vertex="1">
          <mxGeometry x="477" y="390" width="20" height="20" as="geometry" />
        </mxCell>
        <mxCell id="iUPQUDSOphjakr8NZaIA-15" value=")" style="text;html=1;align=center;verticalAlign=middle;resizable=0;points=[];autosize=1;fillColor=#dae8fc;strokeColor=#6c8ebf;" parent="WIyWlLk6GJQsqaUBKTNV-1" vertex="1">
          <mxGeometry x="487" y="450" width="20" height="20" as="geometry" />
        </mxCell>
        <mxCell id="iUPQUDSOphjakr8NZaIA-16" value="R bracket" style="ellipse;whiteSpace=wrap;html=1;aspect=fixed;shadow=0;fontFamily=Helvetica;fontSize=12;align=center;strokeColor=#6c8ebf;strokeWidth=1;fillColor=#dae8fc;" parent="WIyWlLk6GJQsqaUBKTNV-1" vertex="1">
          <mxGeometry x="549.3199999999999" y="520.86" width="120" height="40" as="geometry" />
        </mxCell>
        <mxCell id="iUPQUDSOphjakr8NZaIA-20" value="" style="endArrow=classic;html=1;strokeColor=#6c8ebf;fontColor=#5C5C5C;fillColor=#dae8fc;" parent="WIyWlLk6GJQsqaUBKTNV-1" source="WIyWlLk6GJQsqaUBKTNV-6" edge="1">
          <mxGeometry width="50" height="50" relative="1" as="geometry">
            <mxPoint x="499.31999999999994" y="590" as="sourcePoint" />
            <mxPoint x="549.3199999999999" y="540" as="targetPoint" />
          </mxGeometry>
        </mxCell>
        <mxCell id="iUPQUDSOphjakr8NZaIA-21" value="" style="endArrow=classic;html=1;entryX=0;entryY=0.5;entryDx=0;entryDy=0;strokeColor=#6c8ebf;fontColor=#5C5C5C;fillColor=#dae8fc;" parent="WIyWlLk6GJQsqaUBKTNV-1" source="WIyWlLk6GJQsqaUBKTNV-6" target="iUPQUDSOphjakr8NZaIA-7" edge="1">
          <mxGeometry width="50" height="50" relative="1" as="geometry">
            <mxPoint x="507" y="470" as="sourcePoint" />
            <mxPoint x="557" y="420" as="targetPoint" />
          </mxGeometry>
        </mxCell>
        <mxCell id="iUPQUDSOphjakr8NZaIA-22" value="" style="endArrow=classic;html=1;strokeColor=#6c8ebf;fillColor=#dae8fc;fontColor=#5C5C5C;entryX=0;entryY=0.5;entryDx=0;entryDy=0;exitX=1;exitY=0.5;exitDx=0;exitDy=0;" parent="WIyWlLk6GJQsqaUBKTNV-1" source="WIyWlLk6GJQsqaUBKTNV-6" target="WIyWlLk6GJQsqaUBKTNV-7" edge="1">
          <mxGeometry width="50" height="50" relative="1" as="geometry">
            <mxPoint x="437" y="360" as="sourcePoint" />
            <mxPoint x="487" y="310" as="targetPoint" />
          </mxGeometry>
        </mxCell>
        <mxCell id="iUPQUDSOphjakr8NZaIA-23" value="" style="endArrow=classic;html=1;strokeColor=#6c8ebf;fillColor=#dae8fc;fontColor=#5C5C5C;" parent="WIyWlLk6GJQsqaUBKTNV-1" source="WIyWlLk6GJQsqaUBKTNV-6" edge="1">
          <mxGeometry width="50" height="50" relative="1" as="geometry">
            <mxPoint x="256.28932188134524" y="390" as="sourcePoint" />
            <mxPoint x="277" y="340" as="targetPoint" />
          </mxGeometry>
        </mxCell>
        <mxCell id="iUPQUDSOphjakr8NZaIA-24" value="*" style="text;html=1;align=center;verticalAlign=middle;resizable=0;points=[];autosize=1;fillColor=#dae8fc;strokeColor=#6c8ebf;" parent="WIyWlLk6GJQsqaUBKTNV-1" vertex="1">
          <mxGeometry x="287" y="310" width="20" height="20" as="geometry" />
        </mxCell>
        <mxCell id="iUPQUDSOphjakr8NZaIA-26" value="" style="endArrow=classic;html=1;strokeColor=#6c8ebf;fillColor=#dae8fc;fontColor=#5C5C5C;entryX=0.5;entryY=0;entryDx=0;entryDy=0;" parent="WIyWlLk6GJQsqaUBKTNV-1" source="WIyWlLk6GJQsqaUBKTNV-6" target="WIyWlLk6GJQsqaUBKTNV-11" edge="1">
          <mxGeometry width="50" height="50" relative="1" as="geometry">
            <mxPoint x="537" y="410" as="sourcePoint" />
            <mxPoint x="587" y="360" as="targetPoint" />
          </mxGeometry>
        </mxCell>
        <mxCell id="iUPQUDSOphjakr8NZaIA-27" value="-" style="text;html=1;align=center;verticalAlign=middle;resizable=0;points=[];autosize=1;fillColor=#dae8fc;strokeColor=#6c8ebf;" parent="WIyWlLk6GJQsqaUBKTNV-1" vertex="1">
          <mxGeometry x="404" y="450" width="20" height="20" as="geometry" />
        </mxCell>
        <mxCell id="oZQmqG68w5PHLfML1UTu-1" value="GreatT" style="ellipse;whiteSpace=wrap;html=1;aspect=fixed;shadow=0;fontFamily=Helvetica;fontSize=12;align=center;strokeColor=#6c8ebf;strokeWidth=1;fillColor=#dae8fc;" vertex="1" parent="WIyWlLk6GJQsqaUBKTNV-1">
          <mxGeometry x="157" y="460" width="120" height="40" as="geometry" />
        </mxCell>
        <mxCell id="oZQmqG68w5PHLfML1UTu-2" value="LessT" style="ellipse;whiteSpace=wrap;html=1;aspect=fixed;shadow=0;fontFamily=Helvetica;fontSize=12;align=center;strokeColor=#6c8ebf;strokeWidth=1;fillColor=#dae8fc;" vertex="1" parent="WIyWlLk6GJQsqaUBKTNV-1">
          <mxGeometry x="157" y="545" width="120" height="40" as="geometry" />
        </mxCell>
        <mxCell id="oZQmqG68w5PHLfML1UTu-3" value="" style="endArrow=classic;html=1;entryX=0.07;entryY=0.758;entryDx=0;entryDy=0;entryPerimeter=0;exitX=0.07;exitY=0.758;exitDx=0;exitDy=0;exitPerimeter=0;fillColor=#dae8fc;strokeColor=#6c8ebf;" edge="1" parent="WIyWlLk6GJQsqaUBKTNV-1" source="WIyWlLk6GJQsqaUBKTNV-6">
          <mxGeometry width="50" height="50" relative="1" as="geometry">
            <mxPoint x="300" y="400" as="sourcePoint" />
            <mxPoint x="250" y="460" as="targetPoint" />
          </mxGeometry>
        </mxCell>
        <mxCell id="oZQmqG68w5PHLfML1UTu-5" value="&amp;gt;" style="text;html=1;align=center;verticalAlign=middle;resizable=0;points=[];autosize=1;fillColor=#dae8fc;strokeColor=#6c8ebf;" vertex="1" parent="WIyWlLk6GJQsqaUBKTNV-1">
          <mxGeometry x="257" y="410" width="20" height="20" as="geometry" />
        </mxCell>
        <mxCell id="oZQmqG68w5PHLfML1UTu-6" value="&amp;lt;" style="text;html=1;align=center;verticalAlign=middle;resizable=0;points=[];autosize=1;fillColor=#dae8fc;strokeColor=#6c8ebf;" vertex="1" parent="WIyWlLk6GJQsqaUBKTNV-1">
          <mxGeometry x="287" y="430" width="20" height="20" as="geometry" />
        </mxCell>
        <mxCell id="oZQmqG68w5PHLfML1UTu-7" value="" style="endArrow=classic;html=1;entryX=0.703;entryY=0.058;entryDx=0;entryDy=0;entryPerimeter=0;exitX=0.257;exitY=0.95;exitDx=0;exitDy=0;exitPerimeter=0;fillColor=#dae8fc;strokeColor=#6c8ebf;" edge="1" parent="WIyWlLk6GJQsqaUBKTNV-1" source="WIyWlLk6GJQsqaUBKTNV-6" target="oZQmqG68w5PHLfML1UTu-2">
          <mxGeometry width="50" height="50" relative="1" as="geometry">
            <mxPoint x="357" y="370" as="sourcePoint" />
            <mxPoint x="307" y="420" as="targetPoint" />
          </mxGeometry>
        </mxCell>
        <mxCell id="oZQmqG68w5PHLfML1UTu-8" value="Assign" style="ellipse;whiteSpace=wrap;html=1;aspect=fixed;shadow=0;fontFamily=Helvetica;fontSize=12;align=center;strokeColor=#6c8ebf;strokeWidth=1;fillColor=#dae8fc;" vertex="1" parent="WIyWlLk6GJQsqaUBKTNV-1">
          <mxGeometry x="150" y="210" width="120" height="40" as="geometry" />
        </mxCell>
        <mxCell id="oZQmqG68w5PHLfML1UTu-9" value="" style="endArrow=classic;html=1;entryX=0.756;entryY=0.95;entryDx=0;entryDy=0;entryPerimeter=0;fillColor=#dae8fc;strokeColor=#6c8ebf;" edge="1" parent="WIyWlLk6GJQsqaUBKTNV-1" source="WIyWlLk6GJQsqaUBKTNV-6" target="oZQmqG68w5PHLfML1UTu-8">
          <mxGeometry width="50" height="50" relative="1" as="geometry">
            <mxPoint x="310" y="250" as="sourcePoint" />
            <mxPoint x="260" y="300" as="targetPoint" />
            <Array as="points" />
          </mxGeometry>
        </mxCell>
        <mxCell id="oZQmqG68w5PHLfML1UTu-10" value="=" style="text;html=1;align=center;verticalAlign=middle;resizable=0;points=[];autosize=1;fillColor=#dae8fc;strokeColor=#6c8ebf;" vertex="1" parent="WIyWlLk6GJQsqaUBKTNV-1">
          <mxGeometry x="287" y="250" width="20" height="20" as="geometry" />
        </mxCell>
        <mxCell id="oZQmqG68w5PHLfML1UTu-14" value="!" style="ellipse;whiteSpace=wrap;html=1;aspect=fixed;shadow=0;fontFamily=Helvetica;fontSize=12;align=center;strokeColor=#6c8ebf;strokeWidth=1;fillColor=#dae8fc;" vertex="1" parent="WIyWlLk6GJQsqaUBKTNV-1">
          <mxGeometry x="477" y="240" width="120" height="40" as="geometry" />
        </mxCell>
        <mxCell id="oZQmqG68w5PHLfML1UTu-15" value="" style="endArrow=classic;html=1;strokeColor=#6c8ebf;fillColor=#dae8fc;fontColor=#5C5C5C;entryX=0;entryY=1;entryDx=0;entryDy=0;exitX=1;exitY=0.5;exitDx=0;exitDy=0;" edge="1" parent="WIyWlLk6GJQsqaUBKTNV-1" target="oZQmqG68w5PHLfML1UTu-14">
          <mxGeometry width="50" height="50" relative="1" as="geometry">
            <mxPoint x="414" y="310" as="sourcePoint" />
            <mxPoint x="464" y="310" as="targetPoint" />
          </mxGeometry>
        </mxCell>
        <mxCell id="oZQmqG68w5PHLfML1UTu-17" value="!" style="text;html=1;align=center;verticalAlign=middle;resizable=0;points=[];autosize=1;fillColor=#dae8fc;strokeColor=#6c8ebf;" vertex="1" parent="WIyWlLk6GJQsqaUBKTNV-1">
          <mxGeometry x="437" y="270" width="20" height="20" as="geometry" />
        </mxCell>
        <mxCell id="oZQmqG68w5PHLfML1UTu-19" value="EOL" style="ellipse;whiteSpace=wrap;html=1;aspect=fixed;shadow=0;fontFamily=Helvetica;fontSize=12;align=center;strokeColor=#6c8ebf;strokeWidth=1;fillColor=#dae8fc;" vertex="1" parent="WIyWlLk6GJQsqaUBKTNV-1">
          <mxGeometry x="277" y="615" width="120" height="40" as="geometry" />
        </mxCell>
        <mxCell id="oZQmqG68w5PHLfML1UTu-21" value="" style="endArrow=classic;html=1;fillColor=#dae8fc;strokeColor=#6c8ebf;" edge="1" parent="WIyWlLk6GJQsqaUBKTNV-1" source="WIyWlLk6GJQsqaUBKTNV-6" target="oZQmqG68w5PHLfML1UTu-19">
          <mxGeometry width="50" height="50" relative="1" as="geometry">
            <mxPoint x="362.70000000000005" y="386" as="sourcePoint" />
            <mxPoint x="251.36" y="557.32" as="targetPoint" />
          </mxGeometry>
        </mxCell>
        <mxCell id="oZQmqG68w5PHLfML1UTu-22" value="\n" style="text;html=1;align=center;verticalAlign=middle;resizable=0;points=[];autosize=1;fillColor=#dae8fc;strokeColor=#6c8ebf;" vertex="1" parent="WIyWlLk6GJQsqaUBKTNV-1">
          <mxGeometry x="322" y="520.86" width="30" height="20" as="geometry" />
        </mxCell>
        <mxCell id="oZQmqG68w5PHLfML1UTu-23" value="Col" style="ellipse;whiteSpace=wrap;html=1;aspect=fixed;shadow=0;fontFamily=Helvetica;fontSize=12;align=center;strokeColor=#6c8ebf;strokeWidth=1;fillColor=#dae8fc;" vertex="1" parent="WIyWlLk6GJQsqaUBKTNV-1">
          <mxGeometry x="477" y="615" width="120" height="40" as="geometry" />
        </mxCell>
        <mxCell id="oZQmqG68w5PHLfML1UTu-24" value="" style="endArrow=classic;html=1;exitX=0.737;exitY=1.025;exitDx=0;exitDy=0;exitPerimeter=0;" edge="1" parent="WIyWlLk6GJQsqaUBKTNV-1" source="WIyWlLk6GJQsqaUBKTNV-6" target="oZQmqG68w5PHLfML1UTu-23">
          <mxGeometry width="50" height="50" relative="1" as="geometry">
            <mxPoint x="380" y="500" as="sourcePoint" />
            <mxPoint x="430" y="450" as="targetPoint" />
          </mxGeometry>
        </mxCell>
        <mxCell id="oZQmqG68w5PHLfML1UTu-25" value=":" style="text;html=1;align=center;verticalAlign=middle;resizable=0;points=[];autosize=1;fillColor=#dae8fc;strokeColor=#6c8ebf;" vertex="1" parent="WIyWlLk6GJQsqaUBKTNV-1">
          <mxGeometry x="472" y="490" width="20" height="20" as="geometry" />
        </mxCell>
        <mxCell id="oZQmqG68w5PHLfML1UTu-26" value="SemCol" style="ellipse;whiteSpace=wrap;html=1;aspect=fixed;shadow=0;fontFamily=Helvetica;fontSize=12;align=center;strokeColor=#6c8ebf;strokeWidth=1;fillColor=#dae8fc;" vertex="1" parent="WIyWlLk6GJQsqaUBKTNV-1">
          <mxGeometry x="170" y="655" width="120" height="40" as="geometry" />
        </mxCell>
        <mxCell id="oZQmqG68w5PHLfML1UTu-27" value="" style="endArrow=classic;html=1;strokeColor=#6c8ebf;fillColor=#dae8fc;fontColor=#5C5C5C;entryX=0.667;entryY=0.375;entryDx=0;entryDy=0;exitX=0.323;exitY=0.983;exitDx=0;exitDy=0;exitPerimeter=0;entryPerimeter=0;" edge="1" parent="WIyWlLk6GJQsqaUBKTNV-1" target="oZQmqG68w5PHLfML1UTu-26" source="WIyWlLk6GJQsqaUBKTNV-6">
          <mxGeometry width="50" height="50" relative="1" as="geometry">
            <mxPoint x="140" y="450" as="sourcePoint" />
            <mxPoint x="355" y="490" as="targetPoint" />
          </mxGeometry>
        </mxCell>
        <mxCell id="oZQmqG68w5PHLfML1UTu-33" value=";" style="text;html=1;align=center;verticalAlign=middle;resizable=0;points=[];autosize=1;fillColor=#dae8fc;strokeColor=#6c8ebf;" vertex="1" parent="WIyWlLk6GJQsqaUBKTNV-1">
          <mxGeometry x="277" y="520.86" width="20" height="20" as="geometry" />
        </mxCell>
        <mxCell id="oZQmqG68w5PHLfML1UTu-35" value="Comma" style="ellipse;whiteSpace=wrap;html=1;aspect=fixed;shadow=0;fontFamily=Helvetica;fontSize=12;align=center;strokeColor=#6c8ebf;strokeWidth=1;fillColor=#dae8fc;" vertex="1" parent="WIyWlLk6GJQsqaUBKTNV-1">
          <mxGeometry x="387" y="670" width="120" height="40" as="geometry" />
        </mxCell>
        <mxCell id="oZQmqG68w5PHLfML1UTu-36" value="" style="endArrow=classic;html=1;entryX=0.608;entryY=0;entryDx=0;entryDy=0;entryPerimeter=0;exitX=0.5;exitY=1;exitDx=0;exitDy=0;" edge="1" parent="WIyWlLk6GJQsqaUBKTNV-1" source="WIyWlLk6GJQsqaUBKTNV-6" target="oZQmqG68w5PHLfML1UTu-35">
          <mxGeometry width="50" height="50" relative="1" as="geometry">
            <mxPoint x="420" y="660" as="sourcePoint" />
            <mxPoint x="470" y="610" as="targetPoint" />
            <Array as="points">
              <mxPoint x="380" y="430" />
            </Array>
          </mxGeometry>
        </mxCell>
        <mxCell id="oZQmqG68w5PHLfML1UTu-37" value="," style="text;html=1;align=center;verticalAlign=middle;resizable=0;points=[];autosize=1;fillColor=#dae8fc;strokeColor=#6c8ebf;" vertex="1" parent="WIyWlLk6GJQsqaUBKTNV-1">
          <mxGeometry x="377" y="430" width="20" height="20" as="geometry" />
        </mxCell>
      </root>
    </mxGraphModel>
  </diagram>
</mxfile>
